<svg xmlns="http://www.w3.org/2000/svg" xmlns:xlink="http://www.w3.org/1999/xlink" width="1080" zoomAndPan="magnify" viewBox="0 0 810 809.999993" height="1080" preserveAspectRatio="xMidYMid meet" version="1.0"><defs><g/><clipPath id="090b4cbc3f"><path d="M 172.402344 334.53125 L 282.667969 334.53125 L 282.667969 466.277344 L 172.402344 466.277344 Z M 172.402344 334.53125 " clip-rule="nonzero"/></clipPath></defs><rect x="-81" width="972" fill="#ffffff" y="-80.999999" height="971.999992" fill-opacity="1"/><rect x="-81" width="972" fill="#000000" y="-80.999999" height="971.999992" fill-opacity="1"/><g fill="#d32f2f" fill-opacity="1"><g transform="translate(76.905811, 464.220093)"><g><path d="M 16.765625 0 L 16.765625 -103.875 L 1.5 -103.875 L 1.5 -128.5625 L 57.765625 -128.5625 L 57.765625 -103.875 L 42.5 -103.875 L 42.5 0 Z M 16.765625 0 "/></g></g></g><g fill="#d32f2f" fill-opacity="1"><g transform="translate(170.922916, 464.220093)"><g/></g></g><g fill="#d32f2f" fill-opacity="1"><g transform="translate(240.669373, 464.220093)"><g/></g></g><g fill="#d32f2f" fill-opacity="1"><g transform="translate(310.423761, 464.220093)"><g><path d="M 5.6875 -128.5625 L 45.203125 -128.5625 C 51.484375 -128.5625 56.34375 -127.140625 59.78125 -124.296875 C 63.226562 -121.453125 65.550781 -117.460938 66.75 -112.328125 C 67.945312 -107.191406 68.546875 -100.628906 68.546875 -92.640625 C 68.546875 -85.359375 67.597656 -79.671875 65.703125 -75.578125 C 63.804688 -71.492188 60.515625 -68.648438 55.828125 -67.046875 C 59.722656 -66.253906 62.539062 -64.3125 64.28125 -61.21875 C 66.03125 -58.125 66.90625 -53.929688 66.90625 -48.640625 L 66.609375 0 L 41.453125 0 L 41.453125 -50.296875 C 41.453125 -53.878906 40.753906 -56.171875 39.359375 -57.171875 C 37.960938 -58.171875 35.421875 -58.671875 31.734375 -58.671875 L 31.734375 0 L 5.6875 0 Z M 38.015625 -80.96875 C 41.609375 -80.96875 43.40625 -84.859375 43.40625 -92.640625 C 43.40625 -96.035156 43.253906 -98.582031 42.953125 -100.28125 C 42.648438 -101.976562 42.097656 -103.148438 41.296875 -103.796875 C 40.503906 -104.441406 39.359375 -104.765625 37.859375 -104.765625 L 31.875 -104.765625 L 31.875 -80.96875 Z M 38.015625 -80.96875 "/></g></g></g><g fill="#d32f2f" fill-opacity="1"><g transform="translate(416.539164, 464.220093)"><g><path d="M 4.484375 0 L 4.484375 -128.5625 L 29.328125 -128.5625 L 29.328125 0 Z M 4.484375 0 "/></g></g></g><g fill="#d32f2f" fill-opacity="1"><g transform="translate(485.237949, 464.220093)"><g><path d="M 5.6875 -128.5625 L 40.5625 -128.5625 C 49.9375 -128.5625 56.742188 -126.265625 60.984375 -121.671875 C 65.234375 -117.085938 67.359375 -109.609375 67.359375 -99.234375 L 67.359375 -93.546875 C 67.359375 -81.273438 62.96875 -73.941406 54.1875 -71.546875 C 59.570312 -70.148438 63.359375 -66.90625 65.546875 -61.8125 C 67.742188 -56.726562 68.84375 -49.992188 68.84375 -41.609375 C 68.84375 -27.941406 66.796875 -17.585938 62.703125 -10.546875 C 58.617188 -3.515625 51.238281 0 40.5625 0 L 5.6875 0 Z M 36.078125 -80.21875 C 38.265625 -80.21875 39.757812 -81.039062 40.5625 -82.6875 C 41.363281 -84.332031 41.765625 -86.65625 41.765625 -89.65625 L 41.765625 -102.53125 C 41.765625 -106.71875 39.914062 -108.8125 36.21875 -108.8125 L 30.828125 -108.8125 L 30.828125 -80.21875 Z M 33.375 -22.59375 C 40.0625 -22.59375 43.40625 -25.785156 43.40625 -32.171875 L 43.40625 -48.1875 C 43.40625 -52.082031 42.832031 -55.023438 41.6875 -57.015625 C 40.539062 -59.015625 38.519531 -60.015625 35.625 -60.015625 L 30.828125 -60.015625 L 30.828125 -22.75 Z M 33.375 -22.59375 "/></g></g></g><g fill="#d32f2f" fill-opacity="1"><g transform="translate(591.652675, 464.220093)"><g><path d="M 4.484375 0 L 4.484375 -128.5625 L 29.328125 -128.5625 L 29.328125 0 Z M 4.484375 0 "/></g></g></g><g fill="#d32f2f" fill-opacity="1"><g transform="translate(660.351454, 464.220093)"><g><path d="M 36.375 1.203125 C 25.988281 1.203125 18.101562 -1.960938 12.71875 -8.296875 C 7.332031 -14.640625 4.640625 -23.546875 4.640625 -35.015625 L 4.640625 -96.234375 C 4.640625 -107.316406 7.332031 -115.675781 12.71875 -121.3125 C 18.101562 -126.945312 25.988281 -129.765625 36.375 -129.765625 C 46.75 -129.765625 54.628906 -126.945312 60.015625 -121.3125 C 65.398438 -115.675781 68.09375 -107.316406 68.09375 -96.234375 L 68.09375 -35.015625 C 68.09375 -23.441406 65.398438 -14.507812 60.015625 -8.21875 C 54.628906 -1.9375 46.75 1.203125 36.375 1.203125 Z M 36.375 -22.453125 C 38.664062 -22.453125 40.207031 -23.445312 41 -25.4375 C 41.800781 -27.4375 42.203125 -30.234375 42.203125 -33.828125 L 42.203125 -96.6875 C 42.203125 -99.476562 41.828125 -101.75 41.078125 -103.5 C 40.335938 -105.25 38.816406 -106.125 36.515625 -106.125 C 32.222656 -106.125 30.078125 -102.878906 30.078125 -96.390625 L 30.078125 -33.671875 C 30.078125 -29.984375 30.523438 -27.191406 31.421875 -25.296875 C 32.328125 -23.398438 33.976562 -22.453125 36.375 -22.453125 Z M 36.375 -22.453125 "/></g></g></g><g clip-path="url(#090b4cbc3f)"><path fill="#d32f2f" d="M 205.5 334.53125 C 190.882812 334.53125 180.191406 348.914062 184.394531 362.914062 L 191.488281 386.582031 C 179.828125 396.6875 172.425781 411.574219 172.425781 428.214844 C 172.425781 446.269531 183.707031 460.078125 185.578125 462.261719 C 185.773438 462.53125 185.980469 462.792969 186.203125 463.046875 C 186.203125 463.046875 186.265625 463.121094 186.265625 463.121094 C 186.269531 463.121094 186.273438 463.121094 186.277344 463.121094 C 187.222656 464.175781 188.332031 465.019531 189.601562 465.644531 C 190.875 466.273438 192.214844 466.640625 193.628906 466.75 L 193.714844 466.792969 L 261.351562 466.792969 L 261.429688 466.75 C 262.84375 466.644531 264.191406 466.277344 265.464844 465.648438 C 266.738281 465.019531 267.851562 464.179688 268.800781 463.121094 C 268.800781 463.121094 268.832031 463.078125 268.832031 463.078125 C 269.054688 462.832031 269.261719 462.578125 269.457031 462.316406 C 271.242188 460.242188 282.644531 446.355469 282.644531 428.214844 C 282.644531 411.574219 275.242188 396.6875 263.582031 386.582031 L 270.675781 362.914062 L 270.675781 362.902344 C 274.867188 348.90625 264.179688 334.53125 249.566406 334.53125 Z M 205.5 345.550781 L 249.566406 345.550781 C 257.101562 345.550781 262.292969 352.519531 260.125 359.738281 L 254.066406 379.921875 C 246.195312 375.585938 237.15625 373.105469 227.535156 373.105469 C 217.914062 373.105469 208.875 375.585938 201 379.921875 L 194.941406 359.738281 C 192.773438 352.519531 197.964844 345.550781 205.5 345.550781 Z M 205.5 345.550781 " fill-opacity="1" fill-rule="nonzero"/></g></svg>